<svg xmlns="http://www.w3.org/2000/svg" xmlns:xlink="http://www.w3.org/1999/xlink" viewBox="0 0 296.12 186.13"><defs><style>.cls-1{fill:url(#radial-gradient);}.cls-2{fill:#fff;}</style><radialGradient id="radial-gradient" cx="-1683.94" cy="47.87" r="1" gradientTransform="matrix(245.11, 244.76, 244.76, -245.11, 401032.88, 423899.65)" gradientUnits="userSpaceOnUse"><stop offset="0" stop-color="#adddf7"/><stop offset="0.45" stop-color="#60b8e7"/><stop offset="1" stop-color="#0f62af"/></radialGradient></defs><g id="Layer_2" data-name="Layer 2"><g id="Layer_1-2" data-name="Layer 1"><path class="cls-1" d="M265.23,0H30.89A30.89,30.89,0,0,0,0,30.89v87.74c.36-1,.75-2,1.16-3A77.33,77.33,0,0,1,18.57,90.07,95.35,95.35,0,0,1,57,67.28,105.67,105.67,0,0,1,98.91,63a98.32,98.32,0,0,1,27.35,6.72L205,101.75c2.6,1.06,4.21,3.48,3.58,5.42l-1.52,4.69c-.65,2-3.38,2.78-6.08,1.65L119.52,79.56a78.49,78.49,0,0,0-33.64-5.81,81.22,81.22,0,0,0-33.3,8.69A70,70,0,0,0,33.31,96.82c-8.85,9.44-14,20.43-15.22,31.79a50.35,50.35,0,0,0,9.34,35,61.53,61.53,0,0,0,22,18.67,74.39,74.39,0,0,0,8.7,3.8H112a74.56,74.56,0,0,0,24-13.71,61,61,0,0,0,16-21.19,50.85,50.85,0,0,0,4.47-24,49.63,49.63,0,0,0-2-11c-.31-1-.65-2.06-1-3.08-.91-2.47,1.87-4.33,4.67-3.13l9.28,4a8.68,8.68,0,0,1,5.12,5.56,62.58,62.58,0,0,1,1.63,8.88A65.74,65.74,0,0,1,170,159.51a77,77,0,0,1-17.51,26.62h112.7a30.89,30.89,0,0,0,30.89-30.89V30.89A30.89,30.89,0,0,0,265.23,0ZM125.14,112.27,111.68,121a5.27,5.27,0,0,0-1.1,8.24l11.71,12.79a6.1,6.1,0,0,1-.89,9.23l-7.4,5.47a7.94,7.94,0,0,1-10.6-1.13L91.73,141.85c-2.38-2.82-7-3.32-10.36-1.14L64.78,151.49c-3.67,2.39-8.56,1.87-10.82-1.15l-5.18-6.91c-2.17-2.9-.92-7,2.72-9.17l16.44-9.8c3.35-2,4.26-5.66,2.11-8.2l-9.79-11.55c-2-2.37-1-5.66,2.18-7.35l7.27-3.86c3.05-1.62,7.12-1.13,9.15,1.09l9.89,10.81c2.17,2.37,6.38,2.86,9.34,1.1l13.45-8a7.74,7.74,0,0,1,9,1.07l5.32,5.3A4.57,4.57,0,0,1,125.14,112.27ZM280.29,64.52c-.81,8.18-5.86,14.72-14.06,19-8.54,4.43-20.25,6.26-33.56,5a103.43,103.43,0,0,1-27.77-6.79l-74-29.12c-2.18-.86-3.13-2.67-2.14-4l2.33-3.17c1-1.32,3.44-1.71,5.57-.89L208.4,72.14a75.63,75.63,0,0,0,30.73,5.35c9.19-.49,16.81-3.1,21.73-7.46a17.19,17.19,0,0,0,5.86-10.43c.93-5.93-1.2-12.21-5.43-18.12A59.12,59.12,0,0,0,243.9,26,82.05,82.05,0,0,0,228,18.64a76.7,76.7,0,0,0-24.6-4.36c-7.69,0-14.69,1.42-20.06,4.22a21.15,21.15,0,0,0-8.58,7.75,17.28,17.28,0,0,0-2.18,11.53,24.54,24.54,0,0,0,1.9,6.43l.9,2c.69,1.56-1.41,2.59-3.61,1.75l-7.35-2.78a6.18,6.18,0,0,1-4-3.59,28.11,28.11,0,0,1-1-5.13A22,22,0,0,1,163,22c3.94-5.94,10.69-10,18.88-12.32,7.93-2.19,17.41-2.73,27.46-1.52a102.67,102.67,0,0,1,20.76,4.79,101.57,101.57,0,0,1,28.41,14.83c8.24,6.23,14.74,13.49,18.44,21A29,29,0,0,1,280.29,64.52Zm-67.78-26.8c-3.59,2.13-10.37,1.22-15-2s-5.1-7.34-1.45-9.28,10-1,14.46,2S216,35.63,212.51,37.72Zm4,18.54c-3.81,2.52-11.07,1.57-16.05-2.1s-5.54-8.35-1.66-10.63,10.63-1.31,15.44,2.06S220.18,53.81,216.46,56.26Zm22.65-14.95c-3.28,2.16-10,1.26-14.82-2s-5.75-7.39-2.4-9.36,9.63-1.05,14.3,2S242.31,39.19,239.11,41.31Zm2.46,7.94c5.14,3.44,6.71,8.26,3.35,10.75s-10.62,1.61-15.85-2.08-6.29-8.4-2.75-10.71S236.54,45.86,241.57,49.25Z"/><path class="cls-2" d="M258.55,27.76a101.57,101.57,0,0,0-28.41-14.83,102.67,102.67,0,0,0-20.76-4.79c-10-1.21-19.53-.67-27.46,1.52C173.73,11.93,167,16,163,22a22,22,0,0,0-3.52,14.51,28.11,28.11,0,0,0,1,5.13,6.18,6.18,0,0,0,4,3.59L171.81,48c2.2.84,4.3-.19,3.61-1.75l-.9-2a24.54,24.54,0,0,1-1.9-6.43,17.28,17.28,0,0,1,2.18-11.53,21.15,21.15,0,0,1,8.58-7.75c5.37-2.8,12.37-4.22,20.06-4.22A76.7,76.7,0,0,1,228,18.64,82.05,82.05,0,0,1,243.9,26a59.12,59.12,0,0,1,17.39,15.45c4.23,5.91,6.36,12.19,5.43,18.12A17.19,17.19,0,0,1,260.86,70c-4.92,4.36-12.54,7-21.73,7.46a75.63,75.63,0,0,1-30.73-5.35L136.67,44.45c-2.13-.82-4.61-.43-5.57.89l-2.33,3.17c-1,1.37,0,3.18,2.14,4l74,29.12a103.43,103.43,0,0,0,27.77,6.79c13.31,1.27,25-.56,33.56-5,8.2-4.23,13.25-10.77,14.06-19A29,29,0,0,0,277,48.74C273.29,41.25,266.79,34,258.55,27.76Z"/><path class="cls-2" d="M27.43,163.66a50.35,50.35,0,0,1-9.34-35c1.26-11.36,6.37-22.35,15.22-31.79A70,70,0,0,1,52.58,82.44a81.22,81.22,0,0,1,33.3-8.69,78.49,78.49,0,0,1,33.64,5.81l81.48,34c2.7,1.13,5.43.38,6.08-1.65l1.52-4.69c.63-1.94-1-4.36-3.58-5.42L126.26,69.67A98.32,98.32,0,0,0,98.91,63,105.67,105.67,0,0,0,57,67.28,95.35,95.35,0,0,0,18.57,90.07,77.33,77.33,0,0,0,1.16,115.6c-.41,1-.8,2-1.16,3v36.61a30.89,30.89,0,0,0,30.89,30.89H58.12a74.39,74.39,0,0,1-8.7-3.8A61.53,61.53,0,0,1,27.43,163.66Z"/><path class="cls-2" d="M174.18,128.45a62.58,62.58,0,0,0-1.63-8.88,8.68,8.68,0,0,0-5.12-5.56l-9.28-4c-2.8-1.2-5.58.66-4.67,3.13.38,1,.72,2,1,3.08a49.63,49.63,0,0,1,2,11,50.85,50.85,0,0,1-4.47,24,61,61,0,0,1-16,21.19,74.56,74.56,0,0,1-24,13.71h40.55A77,77,0,0,0,170,159.51,65.74,65.74,0,0,0,174.18,128.45Z"/><path class="cls-2" d="M120.53,99.56a7.74,7.74,0,0,0-9-1.07l-13.45,8c-3,1.76-7.17,1.27-9.34-1.1L78.86,94.59c-2-2.22-6.1-2.71-9.15-1.09l-7.27,3.86c-3.18,1.69-4.18,5-2.18,7.35l9.79,11.55c2.15,2.54,1.24,6.21-2.11,8.2l-16.44,9.8c-3.64,2.16-4.89,6.27-2.72,9.17L54,150.34c2.26,3,7.15,3.54,10.82,1.15l16.59-10.78c3.37-2.18,8-1.68,10.36,1.14l11.67,13.77a7.94,7.94,0,0,0,10.6,1.13l7.4-5.47a6.1,6.1,0,0,0,.89-9.23l-11.71-12.79a5.27,5.27,0,0,1,1.1-8.24l13.46-8.75a4.57,4.57,0,0,0,.71-7.41Z"/><path class="cls-2" d="M210.53,28.39c-4.47-3-10.88-3.88-14.46-2s-3.07,6.09,1.45,9.28,11.4,4.16,15,2S215.08,31.45,210.53,28.39Z"/><path class="cls-2" d="M226.32,47.21c-3.54,2.31-2.38,7.09,2.75,10.71s12.4,4.62,15.85,2.08,1.79-7.31-3.35-10.75S229.78,45,226.32,47.21Z"/><path class="cls-2" d="M198.75,43.53c-3.88,2.28-3.22,7,1.66,10.63s12.24,4.62,16.05,2.1,2.63-7.23-2.27-10.67S202.54,41.3,198.75,43.53Z"/><path class="cls-2" d="M236.19,31.91c-4.67-3-11-3.89-14.3-2s-2.34,6.15,2.4,9.36,11.54,4.16,14.82,2S240.94,35,236.19,31.91Z"/></g></g></svg>