<svg xmlns="http://www.w3.org/2000/svg" xmlns:xlink="http://www.w3.org/1999/xlink" viewBox="0 0 186.12 186.13"><defs><style>.cls-1{fill:url(#radial-gradient);}.cls-2{fill:#fff;}</style><radialGradient id="radial-gradient" cx="1.32" cy="1.91" r="260.5" gradientUnits="userSpaceOnUse"><stop offset="0" stop-color="#adddf7"/><stop offset="0.45" stop-color="#60b8e7"/><stop offset="1" stop-color="#0f62af"/></radialGradient></defs><g id="Layer_2" data-name="Layer 2"><g id="Layer_1-2" data-name="Layer 1"><rect class="cls-1" width="186.12" height="186.13" rx="30.89"/><path class="cls-2" d="M179.12,51.89a18.7,18.7,0,0,0-4.63-10.27c-3.69-4.36-9.24-8-15.75-10.66a68.3,68.3,0,0,0-20.62-4.64,72,72,0,0,0-13.78.33,53.37,53.37,0,0,0-17.18,5c-5,2.5-9,5.87-11.31,9.95a15,15,0,0,0-1.92,9.3,16.08,16.08,0,0,0,.7,3.06,3.08,3.08,0,0,0,2.56,1.73l4.75.78c1.44.23,2.76-.71,2.27-1.61l-.64-1.17a13.38,13.38,0,0,1-1.39-3.79,11.35,11.35,0,0,1,1.06-7.38,17,17,0,0,1,5.13-5.88,33.7,33.7,0,0,1,12.5-5.43,53.33,53.33,0,0,1,16.28-1.09,54.11,54.11,0,0,1,11.28,2.09,37.91,37.91,0,0,1,13.74,7.12c3.73,3.22,6,7.09,6.1,11.26a12.32,12.32,0,0,1-3.09,8.12c-3.16,3.8-8.55,6.76-15.28,8.4a54.28,54.28,0,0,1-22.4.48l-47.6-8.7a3.51,3.51,0,0,0-3.39,1.28l-1.43,2.3c-.62,1-.06,2,1.27,2.29l49.3,10a72.44,72.44,0,0,0,20.56,1.19C156.28,75,165,72,171,67.55,176.7,63.26,179.67,57.8,179.12,51.89Z"/><path class="cls-2" d="M130,93.05l-.79,3.81c-.34,1.66-2.31,2.57-4.36,2L69,83.92a41.12,41.12,0,0,0-20.32,0,56.44,56.44,0,0,0-20,9.49,64.29,64.29,0,0,0-12.14,11.76A60,60,0,0,0,4.87,129.32c-2,9.21-1.52,18.56,2,26.54A31.84,31.84,0,0,0,19,170.09c8.84,5.64,19.72,6.72,30.78,3.75a59.75,59.75,0,0,0,29.39-19.07,61.89,61.89,0,0,0,11.51-19.91,49.72,49.72,0,0,0,2.81-20.09,39,39,0,0,0-1.54-8.36c-.23-.76-.48-1.51-.75-2.24-.66-1.77,1.21-3.48,3.15-2.9l6.53,2a5.54,5.54,0,0,1,3.79,3.71,53.89,53.89,0,0,1,1.48,6.85,64,64,0,0,1-1.94,26.5,83.09,83.09,0,0,1-33.4,45.85H30.89A30.89,30.89,0,0,1,0,155.24V114.73a83.69,83.69,0,0,1,8.86-12.64A81.19,81.19,0,0,1,32.25,83a65.51,65.51,0,0,1,24.57-7.67,50.38,50.38,0,0,1,16.51,1.1l53.7,13C129,89.86,130.34,91.49,130,93.05Z"/><path class="cls-2" d="M72.12,106.62c1.83-1.63,2.06-4.12.56-5.56L69.3,97.81c-1.39-1.34-3.93-1.23-5.71.24l-8.74,7.24c-1.93,1.6-4.54,1.68-5.79.2L43.5,98.88c-1.11-1.32-3.52-1.21-5.43.23l-4.55,3.45c-2,1.51-2.81,3.92-1.77,5.39l5.2,7.36c1.17,1.66.39,4.49-1.81,6.3l-10.81,9c-2.41,2-3.51,5.27-2.41,7.34l2.66,5c1.19,2.25,4.25,2.26,6.77,0l11.32-10.09c2.28-2,5.24-2.07,6.66,0L56.54,143c1.64,2.33,4.91,2.34,7.22,0L69,137.79c2.18-2.19,2.49-5.63.77-7.68l-7.58-9c-1.5-1.79-1.06-4.67.94-6.45Z"/><path class="cls-2" d="M126.24,38.64c-3.09-1.19-7.29-.79-9.5.89s-1.71,4.19,1.38,5.52,7.73,1,10-.88S129.43,39.86,126.24,38.64Z"/><path class="cls-2" d="M138.14,48.25c-2.26,2-1.1,5,2.77,6.69,4,1.74,9.23,1.35,11.46-.89s.56-5.18-3.42-6.71S140.35,46.28,138.14,48.25Z"/><path class="cls-2" d="M129.75,49c-3.44-1.48-8-1.08-10.44.88s-1.78,5,1.66,6.65,8.6,1.36,11.05-.86S133.31,50.49,129.75,49Z"/><path class="cls-2" d="M143.68,37c-3.42-1.18-7.75-.76-9.81.92s-1.15,4.2,2.29,5.54,8.25,1,10.34-.92S147.21,38.22,143.68,37Z"/></g></g></svg>